# xmcd
#
# Track frame offsets: 
#        150
#        16810
#        37953
#        56770
#        79220
#        100333
#        120933
#        137113
#        161358
#        185035
#
# Disc length: 2683 seconds
#
# Revision: 0
# Processed by: cddbd v1.5.2PL0 Copyright (c) Steve Scherf et al.
# Submitted via: ExactAudioCopy v0.95b4
#
DISCID=7a0a790a
DTITLE=Yasukatsu Oshima with Geoffrey Keezer - Yasukatsu Oshima with G
DTITLE=eoffrey Keezer
DYEAR=2007
DGENRE=Country
TTITLE0=Ryusei
TTITLE1=Tsuki nu Kaisha
TTITLE2=Kuinupana
TTITLE3=Sukikanna
TTITLE4=Tinsagu nu Hana
TTITLE5=Menuhama
TTITLE6=Agarikata Bushi
TTITLE7=Sagechijyuya
TTITLE8=Ufarakuitsui
TTITLE9=Uyamaari
EXTD=
EXTT0=
EXTT1=
EXTT2=
EXTT3=
EXTT4=
EXTT5=
EXTT6=
EXTT7=
EXTT8=
EXTT9=
PLAYORDER=
